<?xml version="1.0" encoding="utf-8"?>
<!-- Generator: Adobe Illustrator 16.0.0, SVG Export Plug-In . SVG Version: 6.00 Build 0)  -->
<!DOCTYPE svg PUBLIC "-//W3C//DTD SVG 1.1//EN" "http://www.w3.org/Graphics/SVG/1.1/DTD/svg11.dtd">
<svg version="1.1" xmlns="http://www.w3.org/2000/svg" xmlns:xlink="http://www.w3.org/1999/xlink" x="0px" y="0px"
	 width="595.28px" height="841.89px" viewBox="0 0 595.28 841.89" enable-background="new 0 0 595.28 841.89" xml:space="preserve">
<g id="Layer_1">
</g>
<g id="Layer_2">
</g>
<g id="Layer_5">
</g>
<g id="Layer_4">
</g>
<g id="Layer_3">
	<g>
		<ellipse cx="293.5" cy="396.945" rx="160" ry="203"/>
	</g>
	<g>
		<path fill="#FFFFFF" d="M293.5,581.89c-38.695,0-74.95-19.598-102.086-55.184C164.708,491.685,150,445.227,150,395.89
			c0-49.337,14.708-95.796,41.414-130.817c27.137-35.585,63.392-55.183,102.086-55.183c38.695,0,74.95,19.598,102.087,55.183
			C422.292,300.094,437,346.553,437,395.89c0,49.337-14.708,95.795-41.413,130.816C368.45,562.292,332.195,581.89,293.5,581.89z
			 M293.5,223.89c-71.407,0-129.5,77.159-129.5,172c0,94.841,58.093,172,129.5,172c71.406,0,129.5-77.159,129.5-172
			C423,301.049,364.906,223.89,293.5,223.89z"/>
	</g>
	<g>
		<g>
			<polygon fill="#FFFFFF" points="465.95,500.626 516.667,516.557 498.884,549.223 516.667,595.223 441.581,567.223 
				441.581,547.894 			"/>
			<path d="M525.341,603.794l-88.76-33.1v-24.014l26.854-52.086l60.53,19.014l-19.582,35.971L525.341,603.794z M446.581,563.751
				l61.412,22.9l-14.608-37.785l15.984-29.361l-40.903-12.848l-21.885,42.449V563.751z"/>
		</g>
		<g>
			<polygon fill="#FFFFFF" points="120.735,501.459 69.574,517.278 87.513,549.713 69.574,595.389 145.317,567.586 145.317,548.394 
							"/>
			<path d="M60.854,603.917L82,550.075l-19.776-35.758l61.011-18.863l27.083,51.71v23.914L60.854,603.917z M76.925,520.239
				l16.102,29.113l-14.732,37.51l62.022-22.767v-14.471l-22.08-42.159L76.925,520.239z"/>
		</g>
	</g>
	<g>
		<g>
			<path fill="#FFFFFF" d="M122.185,555.382c1.489,0.635,0.951,0.562,23.897,12.125"/>
			<path d="M144.282,571.08c-13.828-6.969-19.211-9.755-21.51-10.943c-1.556-0.806-1.713-0.886-2.156-1.074l3.138-7.359
				c0.73,0.312,1.068,0.486,2.694,1.328c2.288,1.184,7.644,3.955,21.434,10.904L144.282,571.08z"/>
		</g>
		<g>
			<path fill="#FFFFFF" d="M445.827,568.788c1.339-0.915,0.986-0.5,23.089-13.637"/>
			<path d="M448.084,572.09l-4.514-6.605c0.653-0.446,0.981-0.637,2.556-1.55c2.226-1.29,7.437-4.312,20.746-12.223l4.088,6.877
				c-13.347,7.933-18.584,10.97-20.82,12.267C448.633,571.729,448.482,571.818,448.084,572.09z"/>
		</g>
	</g>
	<g>
		<path fill="#FFFFFF" stroke="#000000" stroke-miterlimit="10" d="M116,467.39"/>
	</g>
	<g>
		<path fill="#FFFFFF" d="M465.95,552.532c-200.557-41-340.686,0-340.686,0s-3.196-67.982-4.443-88.642
			c187.713-33.333,345.128-1.333,345.128-1.333V552.532z"/>
		<path d="M120.569,559.116l-0.299-6.35c-0.032-0.679-3.209-68.185-4.439-88.575l-0.269-4.445l4.385-0.778
			c56.968-10.116,116.844-15.245,177.963-15.245c99.348,0,168.35,13.796,169.036,13.936l4.004,0.813v100.187l-6.001-1.228
			c-58.818-12.023-118.188-18.121-176.461-18.121c-99.086,0-161.203,17.841-161.819,18.021L120.569,559.116z M288.488,529.309
			c56.962,0,114.952,5.758,172.462,17.118v-79.748c-26.222-4.888-88.518-12.957-163.04-12.957
			c-58.972,0-116.758,4.818-171.839,14.325c1.106,19.675,3.14,62.161,3.896,78.071c7.029-1.749,19.987-4.682,38.256-7.634
			C194.121,534.299,236.009,529.309,288.488,529.309z"/>
	</g>
	<g>
		<path fill="none" stroke="#D30D46" stroke-width="13" stroke-miterlimit="10" d="M360.662,362.732"/>
	</g>
	<g>
		<path fill="none" stroke="#D30D46" stroke-width="13" stroke-miterlimit="10" d="M220.054,354.206"/>
	</g>
	<g>
		<path fill="#FFFFFF" d="M331.463,298.373c-13.056-13.929-26.936-20.99-41.258-20.99c-0.145,0-0.288,0-0.432,0.002
			c-23.239,0.23-40.45,19.041-40.621,19.231l-7.449-6.672c0.812-0.908,20.193-22.232,47.871-22.558
			c17.435-0.176,33.975,7.919,49.186,24.147L331.463,298.373z"/>
	</g>
	<g>
		<path fill="#FFFFFF" d="M310.125,308.316c-6.628-6.628-13.538-9.883-20.559-9.666c-11.316,0.346-19.433,9.375-19.514,9.466
			l-6.74-5.964c0.435-0.491,10.819-12.035,25.979-12.498c9.601-0.287,18.744,3.845,27.196,12.297L310.125,308.316z"/>
	</g>
	<g>
		<ellipse fill="#FFFFFF" cx="289.328" cy="318.884" rx="8.227" ry="8.673"/>
	</g>
	<g>
		<path fill="#FFFFFF" d="M295.413,374.563c-2.003,0-4.028-0.018-6.075-0.053c-29.217-0.508-62.558-5.027-71.18-13.978
			c-2.316-2.405-2.765-4.816-2.732-6.416c0.129-6.49,7.294-10.949,22.549-14.033c12.132-2.452,28.477-3.803,46.022-3.803
			c2.006,0,4.03,0.017,6.079,0.053c29.217,0.508,62.557,5.027,71.181,13.977c2.316,2.404,2.765,4.815,2.733,6.415
			c-0.13,6.493-7.296,10.952-22.551,14.035C329.306,373.213,312.96,374.563,295.413,374.563z M226.148,354.323
			c4.957,3.596,26.391,9.546,63.364,10.189c1.989,0.034,3.955,0.051,5.901,0.051c33.88,0,53.112-4.844,57.854-8.043
			c-4.959-3.596-26.393-9.545-63.364-10.188c-1.991-0.035-3.957-0.051-5.905-0.051C250.119,346.281,230.888,351.124,226.148,354.323
			z"/>
	</g>
	<g>
		<path fill="#FFFFFF" d="M345.439,413.752l-1.656-9.862c28.812-4.839,40.613-26.997,41.926-29.641
			c0.873-2.582,1.638-5.967,0.592-7.989c-0.714-1.381-2.552-2.508-5.463-3.35c-5.209-1.557-19.183,3.256-27.455,7.166l-4.277-9.039
			c3.902-1.847,23.906-10.897,34.554-7.721c5.688,1.646,9.473,4.381,11.524,8.351c2.21,4.273,2.17,9.551-0.122,16.134l-0.2,0.49
			C389.691,389.248,373.464,409.045,345.439,413.752z"/>
	</g>
	<g>
		<path fill="#FFFFFF" d="M289.531,436.587c-25.402-0.901-44.803-9.045-57.662-24.205c-20.589-24.273-16.584-57.408-16.403-58.806
			l9.918,1.28l-4.959-0.64l4.96,0.633c-0.038,0.3-3.578,30.277,14.162,51.125c10.964,12.886,27.9,19.823,50.338,20.619
			L289.531,436.587z"/>
	</g>
	<g>
		<path fill="#FFFFFF" d="M288.01,436.582l-0.344-9.994c23.022-0.791,40.275-7.79,51.279-20.803
			c17.137-20.266,13.597-48.532,13.559-48.815l9.912-1.322c0.178,1.336,4.133,32.98-15.835,56.594
			C333.678,427.5,313.972,435.69,288.01,436.582z"/>
	</g>
	<g>
		<path fill="#FFFFFF" d="M222.493,359.909c0,0,0.129,0.109,0.371,0.314c0.217,0.188,0.562,0.472,1.034,0.845
			c0.925,0.739,2.292,1.78,3.993,2.96c0.849,0.594,1.778,1.226,2.783,1.863c0.991,0.664,2.077,1.292,3.19,1.971
			c1.123,0.658,2.303,1.307,3.508,1.964c1.226,0.602,2.45,1.291,3.726,1.846c1.27,0.574,2.536,1.18,3.823,1.66
			c0.641,0.255,1.276,0.507,1.904,0.757c0.632,0.242,1.269,0.434,1.891,0.649c0.625,0.209,1.238,0.416,1.839,0.618
			c0.605,0.188,1.207,0.332,1.789,0.495c1.168,0.306,2.271,0.644,3.314,0.814c1.042,0.205,1.996,0.393,2.843,0.56
			c0.857,0.104,1.604,0.194,2.22,0.269c1.239,0.146,1.947,0.23,1.947,0.23s-0.712,0.026-1.958,0.071
			c-0.627,0.021-1.388,0.046-2.261,0.075c-0.874-0.036-1.86-0.076-2.936-0.12c-1.085-0.011-2.24-0.176-3.475-0.304
			c-0.616-0.073-1.255-0.125-1.9-0.222c-0.643-0.11-1.299-0.223-1.967-0.337c-0.667-0.121-1.355-0.219-2.039-0.366
			c-0.682-0.156-1.372-0.313-2.067-0.472c-1.405-0.291-2.793-0.708-4.197-1.098c-1.412-0.373-2.771-0.881-4.146-1.312
			c-1.349-0.484-2.68-0.969-3.954-1.473c-1.264-0.525-2.502-1.008-3.643-1.539c-1.154-0.504-2.231-1.016-3.221-1.502
			c-1.983-0.966-3.607-1.846-4.744-2.497c-0.562-0.318-1.021-0.589-1.345-0.791c-0.299-0.183-0.459-0.281-0.459-0.281
			L222.493,359.909z"/>
	</g>
	<g>
		<path fill="#FFFFFF" d="M254.214,429.034c-13.924-7.158-23.479-21.388-27.632-41.152c-3.041-14.47-2.158-26.797-2.119-27.314
			l9.972,0.753l-4.986-0.376l4.986,0.372c-0.033,0.446-2.966,44.781,24.351,58.825L254.214,429.034z"/>
	</g>
	<g>
		<path fill="#FFFFFF" d="M320.754,430.064l-3.848-5.848c42.543-27.995,30.448-57.823,30.32-58.121l6.439-2.747
			c0.158,0.372,3.854,9.245,1.467,22.004C351.238,406.172,334.288,421.158,320.754,430.064z"/>
	</g>
	<g>
		<path fill="#FFFFFF" d="M388.426,365.193c-2.342-5.551-8.863-8.124-14.484-8.028c-7.208,0.123-14,4.35-19.073,9.151
			c-2.98,2.821,1.1,7.143,4.264,4.647c5.876-4.634,21.212-12.887,23.879-0.516c1.942,9.014-7.049,18.222-11.666,24.897
			c-2.512,3.632,3.316,7.191,5.811,3.59C383.876,389.229,393.734,377.778,388.426,365.193z"/>
	</g>
	<g>
		<path d="M232.957,356.613c0,0-0.011,0-0.032,0c-0.024,0.011,0.006-0.025-0.069,0.023c-0.066,0.039-0.151,0.083-0.258,0.121
			c-0.106,0.038-0.236,0.068-0.374,0.077c-0.069,0.005-0.139,0.004-0.208-0.001c-0.064-0.006-0.043-0.006-0.07-0.01
			c-0.062-0.012-0.134-0.026-0.214-0.042c-0.312-0.068-0.742-0.169-1.237-0.329c-0.997-0.302-2.265-0.833-3.446-1.496
			c-1.186-0.656-2.267-1.459-3.015-2.118c-0.382-0.32-0.674-0.614-0.879-0.818c-0.205-0.203-0.322-0.318-0.322-0.318
			s0.137,0.092,0.377,0.252c0.239,0.161,0.577,0.392,1.006,0.63c0.844,0.497,2.02,1.061,3.239,1.458
			c1.218,0.404,2.466,0.664,3.397,0.76c0.465,0.058,0.849,0.071,1.106,0.078c0.063,0,0.119,0,0.167,0
			c0.001-0.001,0.049,0.002,0.01-0.002c-0.043-0.003-0.088-0.002-0.133,0.003c-0.09,0.012-0.177,0.045-0.245,0.085
			c-0.069,0.041-0.12,0.087-0.156,0.128c-0.046,0.051,0.008,0.012,0.004,0.022c0.019-0.002,0.028-0.003,0.028-0.003L232.957,356.613
			z"/>
	</g>
	<g>
		<path d="M347.37,356.91c0,0,0.01,0,0.03,0.001c0.023,0.003,0.069,0.006-0.003-0.028c-0.046-0.023-0.111-0.041-0.177-0.032
			c-0.041,0.009,0.09-0.002,0.139-0.003c0.279-0.012,0.694-0.046,1.189-0.102c0.992-0.118,2.321-0.348,3.615-0.731
			c1.294-0.38,2.54-0.932,3.417-1.462c0.435-0.27,0.794-0.508,1.022-0.703c0.239-0.186,0.376-0.292,0.376-0.292
			s-0.115,0.129-0.317,0.354c-0.193,0.237-0.506,0.539-0.896,0.893c-0.786,0.697-1.961,1.499-3.23,2.138
			c-1.267,0.642-2.606,1.136-3.634,1.453c-0.516,0.156-0.95,0.273-1.268,0.346c-0.101,0.021-0.103,0.031-0.259,0.053
			c-0.183,0.022-0.348,0.016-0.473,0.002c-0.152-0.023-0.168-0.019-0.187-0.014c-0.021,0.002-0.033,0.004-0.033,0.004L347.37,356.91
			z"/>
	</g>
	<g>
		<path d="M170.997,476.499l6.161-0.708l2.295,19.974l7.61-0.874l-2.295-19.975l6.161-0.708l5.358,46.628l-6.161,0.708l-2.385-20.76
			l-7.611,0.875l2.386,20.76l-6.161,0.708L170.997,476.499z"/>
		<path d="M200.011,473.318l18.414-1.603l0.549,6.304l-12.235,1.065l1.195,13.726l10.661-0.928l0.549,6.304l-10.661,0.929
			l1.195,13.726l12.235-1.065l0.583,6.698l-18.414,1.604L200.011,473.318z"/>
		<path d="M232.724,493.149l-9.444-21.808l6.554-0.403l5.527,13.595l3.878-14.174l6.554-0.404l-6.88,22.813l10.432,23.992
			l-6.554,0.403l-6.373-15.458l-4.368,16.119l-6.554,0.404L232.724,493.149z"/>
		<path d="M252.474,469.656l9.296-0.33c1.701-0.061,3.208,0.129,4.522,0.565c1.313,0.438,2.518,1.253,3.615,2.444
			c1.097,1.192,1.877,2.604,2.341,4.237c0.463,1.633,0.745,3.854,0.845,6.665c0.073,2.064,0.024,3.836-0.146,5.315
			c-0.171,1.479-0.598,2.868-1.282,4.168c-0.796,1.567-1.888,2.804-3.275,3.711c-1.388,0.906-3.236,1.401-5.545,1.482l-3.159,0.112
			l0.649,18.314l-6.198,0.22L252.474,469.656z M259.461,491.703l2.978-0.105c1.255-0.045,2.22-0.276,2.896-0.696
			c0.674-0.42,1.161-0.976,1.462-1.668c0.299-0.692,0.463-1.522,0.489-2.491c0.027-0.968,0.019-2.045-0.023-3.231
			c-0.039-1.097-0.106-2.14-0.202-3.126c-0.096-0.985-0.308-1.836-0.638-2.55s-0.827-1.267-1.489-1.662
			c-0.663-0.394-1.602-0.569-2.817-0.526l-3.22,0.114L259.461,491.703z"/>
		<path d="M280.502,468.776l9.971-0.082c7.296-0.061,10.981,4.502,11.058,13.686c0.022,2.726-0.353,5.069-1.127,7.03
			c-0.774,1.963-2.15,3.545-4.126,4.748l6.865,21.367l-6.565,0.055l-5.942-19.991l-3.708,0.031l0.166,20.039l-6.201,0.051
			L280.502,468.776z M286.877,489.687l3.526-0.029c1.094-0.01,1.964-0.182,2.61-0.517c0.645-0.335,1.138-0.811,1.478-1.43
			c0.339-0.617,0.566-1.377,0.68-2.279c0.114-0.901,0.167-1.946,0.157-3.133s-0.08-2.229-0.208-3.13
			c-0.129-0.899-0.389-1.666-0.779-2.301c-0.391-0.633-0.932-1.102-1.623-1.403c-0.692-0.302-1.605-0.448-2.74-0.439l-3.222,0.027
			L286.877,489.687z"/>
		<path d="M309.658,468.677l18.479,0.333l-0.114,6.328l-12.279-0.222l-0.248,13.775l10.699,0.192l-0.114,6.327l-10.699-0.192
			l-0.248,13.774l12.279,0.222l-0.121,6.723l-18.48-0.333L309.658,468.677z"/>
		<path d="M354.832,483.63l-6.196-0.273l0.067-1.515c0.068-1.536-0.207-2.88-0.826-4.028c-0.618-1.149-1.718-1.759-3.297-1.829
			c-0.851-0.037-1.557,0.107-2.119,0.435c-0.562,0.328-1.007,0.759-1.335,1.294c-0.328,0.536-0.568,1.162-0.722,1.881
			c-0.154,0.72-0.248,1.474-0.283,2.265c-0.041,0.922-0.045,1.703-0.012,2.342c0.032,0.64,0.16,1.194,0.383,1.666
			c0.222,0.472,0.559,0.895,1.009,1.266c0.449,0.372,1.071,0.752,1.866,1.139l4.647,2.251c1.352,0.632,2.436,1.351,3.252,2.156
			s1.435,1.735,1.855,2.787c0.419,1.053,0.681,2.252,0.784,3.598c0.102,1.347,0.116,2.876,0.04,4.588
			c-0.087,1.976-0.351,3.801-0.789,5.475c-0.439,1.675-1.102,3.097-1.984,4.268c-0.884,1.171-2.03,2.077-3.438,2.718
			c-1.408,0.642-3.104,0.919-5.088,0.831c-1.498-0.066-2.883-0.414-4.153-1.041c-1.271-0.628-2.35-1.457-3.237-2.486
			c-0.888-1.028-1.574-2.235-2.062-3.621c-0.486-1.384-0.694-2.868-0.624-4.448l0.11-2.503l6.195,0.274l-0.093,2.107
			c-0.055,1.229,0.23,2.353,0.854,3.37c0.625,1.017,1.727,1.561,3.306,1.631c1.053,0.046,1.88-0.082,2.482-0.386
			c0.601-0.303,1.067-0.744,1.397-1.323c0.33-0.58,0.554-1.306,0.674-2.181s0.203-1.839,0.25-2.893
			c0.055-1.229,0.059-2.241,0.013-3.035c-0.047-0.794-0.19-1.438-0.432-1.933c-0.243-0.494-0.59-0.905-1.041-1.233
			c-0.453-0.327-1.056-0.684-1.81-1.069L340.132,494c-2.62-1.304-4.343-2.952-5.167-4.946c-0.825-1.994-1.172-4.462-1.042-7.403
			c0.077-1.756,0.373-3.415,0.89-4.976c0.515-1.562,1.232-2.893,2.154-3.996c0.921-1.103,2.064-1.965,3.432-2.587
			c1.366-0.621,2.939-0.893,4.722-0.813c1.538,0.067,2.933,0.438,4.181,1.108c1.248,0.672,2.306,1.532,3.172,2.582
			c0.867,1.051,1.516,2.211,1.946,3.484c0.431,1.272,0.616,2.567,0.559,3.885L354.832,483.63z"/>
		<path d="M382.392,485.53l-6.186-0.446l0.109-1.513c0.111-1.533-0.127-2.884-0.713-4.05c-0.587-1.166-1.668-1.806-3.245-1.92
			c-0.849-0.061-1.559,0.064-2.13,0.375c-0.571,0.312-1.028,0.73-1.371,1.256c-0.343,0.527-0.601,1.146-0.774,1.861
			c-0.173,0.714-0.288,1.466-0.346,2.255c-0.066,0.921-0.092,1.701-0.077,2.341s0.127,1.198,0.336,1.677
			c0.209,0.478,0.533,0.908,0.974,1.293c0.438,0.385,1.05,0.781,1.834,1.189l4.583,2.38c1.333,0.669,2.396,1.418,3.19,2.246
			c0.794,0.829,1.386,1.775,1.776,2.838c0.39,1.064,0.618,2.271,0.684,3.618c0.064,1.35,0.036,2.878-0.087,4.587
			c-0.143,1.973-0.457,3.79-0.942,5.451s-1.188,3.064-2.103,4.21c-0.916,1.146-2.087,2.021-3.512,2.621
			c-1.425,0.602-3.129,0.832-5.108,0.689c-1.497-0.108-2.871-0.495-4.123-1.157c-1.253-0.662-2.309-1.521-3.167-2.575
			c-0.859-1.053-1.512-2.278-1.959-3.677c-0.448-1.397-0.615-2.887-0.501-4.465l0.181-2.498l6.186,0.446l-0.152,2.104
			c-0.089,1.228,0.165,2.357,0.761,3.393c0.596,1.034,1.683,1.608,3.259,1.722c1.051,0.076,1.882-0.029,2.492-0.315
			c0.609-0.286,1.088-0.715,1.434-1.284c0.346-0.57,0.59-1.29,0.735-2.161c0.144-0.871,0.254-1.832,0.33-2.885
			c0.089-1.227,0.12-2.238,0.097-3.033c-0.024-0.795-0.15-1.441-0.378-1.943c-0.229-0.501-0.563-0.922-1.006-1.263
			c-0.443-0.34-1.036-0.713-1.778-1.119l-4.284-2.293c-2.583-1.376-4.259-3.071-5.027-5.088c-0.77-2.016-1.048-4.492-0.836-7.43
			c0.127-1.753,0.469-3.403,1.028-4.949c0.559-1.545,1.312-2.856,2.266-3.934c0.95-1.076,2.118-1.906,3.502-2.49
			c1.383-0.583,2.963-0.811,4.742-0.682c1.536,0.11,2.919,0.52,4.148,1.225c1.229,0.706,2.263,1.596,3.1,2.669
			c0.836,1.075,1.452,2.253,1.848,3.537c0.395,1.284,0.545,2.584,0.449,3.899L382.392,485.53z"/>
		<path d="M389.815,483.728c0.191-1.88,0.663-3.511,1.414-4.892c0.752-1.382,1.669-2.491,2.753-3.332
			c1.083-0.839,2.264-1.437,3.544-1.793c1.278-0.355,2.543-0.47,3.793-0.343s2.465,0.494,3.646,1.1
			c1.181,0.606,2.218,1.43,3.11,2.47c0.892,1.041,1.567,2.313,2.025,3.817c0.459,1.504,0.592,3.197,0.4,5.076l-2.508,24.659
			c-0.195,1.924-0.668,3.565-1.417,4.925c-0.75,1.359-1.667,2.459-2.75,3.298c-1.084,0.841-2.265,1.438-3.543,1.793
			c-1.28,0.355-2.544,0.471-3.794,0.344s-2.466-0.494-3.646-1.1c-1.182-0.606-2.218-1.429-3.11-2.47s-1.568-2.302-2.028-3.785
			c-0.461-1.481-0.594-3.185-0.397-5.109L389.815,483.728z M393.478,509.014c-0.165,1.618,0.127,2.852,0.876,3.7
			c0.748,0.85,1.688,1.331,2.817,1.446c1.128,0.114,2.146-0.168,3.05-0.85c0.904-0.681,1.439-1.83,1.604-3.448l2.509-24.658
			c0.164-1.617-0.129-2.851-0.877-3.7c-0.749-0.849-1.688-1.332-2.817-1.446c-1.129-0.115-2.146,0.169-3.05,0.85
			c-0.905,0.681-1.439,1.831-1.604,3.447L393.478,509.014z"/>
	</g>
</g>
</svg>
